<?xml version="1.0" standalone="no"?>
<!DOCTYPE svg PUBLIC "-//W3C//DTD SVG 20010904//EN"
 "http://www.w3.org/TR/2001/REC-SVG-20010904/DTD/svg10.dtd">
<svg version="1.0" xmlns="http://www.w3.org/2000/svg"
 width="544.000000pt" height="425.000000pt" viewBox="0 0 544.000000 425.000000"
 preserveAspectRatio="xMidYMid meet">

<g transform="translate(0.000000,425.000000) scale(0.100000,-0.100000)"
fill="#000000" stroke="none">
<path d="M1105 4215 c-27 -7 -73 -22 -100 -33 -61 -24 -364 -207 -382 -230
-22 -30 -16 -78 14 -101 l26 -21 -19 -37 c-30 -57 -190 -212 -289 -280 -110
-75 -136 -101 -137 -141 -2 -55 16 -65 107 -59 81 4 124 16 345 97 111 41 120
43 280 50 111 6 196 15 259 30 111 26 158 23 215 -17 91 -64 111 -125 102
-319 -11 -233 -66 -424 -192 -663 -132 -250 -268 -418 -560 -691 -301 -280
-493 -475 -563 -570 -75 -100 -143 -236 -173 -345 -31 -113 -31 -340 -1 -471
31 -131 55 -174 163 -293 l96 -106 155 -6 c85 -4 1032 -7 2104 -8 l1950 -1
115 30 c104 27 119 34 152 70 27 29 51 43 95 55 189 53 235 77 266 142 l22 45
-24 19 c-13 11 -22 21 -20 23 2 1 28 16 56 31 67 36 83 54 86 98 2 20 5 38 8
40 2 2 25 18 50 35 62 42 119 107 119 136 0 36 -31 41 -103 17 -174 -57 -396
-93 -559 -89 l-78 2 3 30 c2 36 -37 67 -120 93 -39 12 -58 24 -64 40 -4 12
-30 33 -57 47 -38 19 -49 30 -48 48 1 19 -8 26 -49 40 l-50 18 65 -5 c214 -16
226 -17 265 -3 56 18 59 50 11 90 -21 17 -36 39 -36 51 -1 15 -22 38 -67 72
-83 62 -114 80 -178 101 -27 9 -59 27 -70 39 -24 28 -89 49 -213 70 -209 35
-189 64 63 91 80 9 105 19 105 43 0 24 -59 75 -144 125 -36 21 -66 42 -66 46
0 5 35 20 78 36 90 32 108 45 95 68 -17 30 -117 98 -210 144 l-93 45 26 24
c23 21 25 27 13 38 -16 15 -193 95 -212 95 -7 0 -45 23 -86 50 -154 103 -298
143 -516 143 -140 1 -140 0 -270 -44 -227 -77 -430 -193 -843 -481 -566 -395
-943 -648 -964 -648 -36 0 38 107 188 275 121 136 330 398 388 488 272 419
354 613 418 983 17 103 22 168 22 324 0 217 -16 323 -75 484 -75 209 -247 406
-407 466 -123 47 -377 65 -487 35z"/>
</g>
</svg>
